<svg xmlns="http://www.w3.org/2000/svg" viewBox="0 0 128 128" fill="none">
  <rect width="128" height="128" rx="24" fill="#2563EB"/>
  <rect x="20" y="16" width="60" height="96" rx="6" fill="white" opacity="0.95"/>
  <rect x="48" y="16" width="60" height="96" rx="6" fill="white" opacity="0.95"/>
  <rect x="36" y="8" width="56" height="20" rx="6" fill="#3B82F6"/>
  <text x="64" y="22" font-family="Arial" font-size="10" font-weight="bold" fill="white" text-anchor="middle">图片</text>
  <circle cx="36" cy="52" r="10" fill="#93C5FD" opacity="0.5"/>
  <rect x="30" y="70" width="40" height="30" rx="4" fill="#DBEAFE"/>
  <circle cx="50" cy="85" r="8" fill="#3B82F6" opacity="0.3"/>
  <path d="M50 80l-6 10h12z" fill="#3B82F6" opacity="0.6"/>
  <rect x="64" y="44" width="32" height="4" rx="2" fill="#93C5FD"/>
  <rect x="64" y="54" width="28" height="4" rx="2" fill="#93C5FD"/>
  <rect x="64" y="64" width="24" height="4" rx="2" fill="#93C5FD"/>
  <rect x="64" y="74" width="30" height="4" rx="2" fill="#93C5FD"/>
  <rect x="64" y="84" width="26" height="4" rx="2" fill="#93C5FD"/>
</svg>
